# xmcd
#
# Track frame offsets:
#	150
#	26140
#	58363
#	79355
#	113175
#	144710
#	179083
#
# Disc length: 2915 seconds
#
# Revision: 3
# Processed by: cddbd v1.5.2PL0 Copyright (c) Steve Scherf et al.
# Submitted via: audiograbber 1.83.01
#
DISCID=6d0b6107
DTITLE=Red Norvo - Red Plays The Blues
DYEAR=1900
DGENRE=
TTITLE0=Britt's Blues
TTITLE1=The Night Is Blue
TTITLE2=Shed No Tears
TTITLE3=Easy On The Eye
TTITLE4=Just A Mood
TTITLE5=I Sing The Blues
TTITLE6=Sunrise Blues
EXTD=Red Plays The Blues
EXTT0=
EXTT1=
EXTT2=
EXTT3=
EXTT4=
EXTT5=
EXTT6=
PLAYORDER=
